<?xml version="1.0" encoding="utf-8"?>
<!-- Generator: Adobe Illustrator 23.1.1, SVG Export Plug-In . SVG Version: 6.00 Build 0)  -->
<svg version="1.1" id="Layer_1" xmlns="http://www.w3.org/2000/svg" xmlns:xlink="http://www.w3.org/1999/xlink" x="0px" y="0px"
	 viewBox="0 0 302 534.1" style="enable-background:new 0 0 302 534.1;" xml:space="preserve">
<path d="M0,534.1h289.3c0,0-8.8-2.6-8.8-8.8c0-6.2,16.6-14.7,16.6-21.5s-67.4-25.7-67.4-38.1s26.5-15.2,26.5-26.3
	s-51.9-19.3-51.9-36.3c0-16.9,53.8-25.1,53.8-31.3s-22.5-3.9-22.5-18.6c0-14.7,66.5-38.1,66.5-44.9s-24.4-4.3-24.4-21.5
	c0-13.4,15.6-8.8,15.6-22.5c0-19-122.1-37.1-122.1-86c0-25.4,81-59.2,81-82.1S131.9,74.1,131.9,18.1c0-40.7-131.9,0-131.9,0V534.1z"
	/>
</svg>
